<svg width="102" height="27" viewBox="0 0 102 27" fill="none" xmlns="http://www.w3.org/2000/svg">
<path d="M0.351562 14.1044V10.3544L15.3516 3.74929V8.06392L5.08168 12.1868L5.22017 11.9631V12.4957L5.08168 12.272L15.3516 16.3949V20.7095L0.351562 14.1044ZM33.8105 8.23438C33.6614 7.71591 33.4518 7.25781 33.182 6.86008C32.9121 6.45526 32.5818 6.11435 32.1912 5.83736C31.8077 5.55327 31.3673 5.33665 30.8702 5.1875C30.3801 5.03835 29.8368 4.96378 29.2402 4.96378C28.1251 4.96378 27.145 5.24077 26.2999 5.79474C25.4618 6.34872 24.8084 7.15483 24.3396 8.21307C23.8709 9.2642 23.6365 10.5497 23.6365 12.0696C23.6365 13.5895 23.8673 14.8821 24.329 15.9474C24.7906 17.0128 25.444 17.826 26.2892 18.3871C27.1344 18.9411 28.1322 19.218 29.2828 19.218C30.3268 19.218 31.2182 19.0334 31.9568 18.6641C32.7026 18.2876 33.2707 17.7585 33.6614 17.0767C34.0591 16.3949 34.258 15.5888 34.258 14.6584L35.1955 14.7969H29.5705V11.3239H38.7004V14.0724C38.7004 15.9901 38.2956 17.6378 37.4859 19.0156C36.6763 20.3864 35.5612 21.4446 34.1408 22.1903C32.7203 22.929 31.0939 23.2983 29.2615 23.2983C27.2161 23.2983 25.4192 22.8473 23.8709 21.9453C22.3226 21.0362 21.1152 19.7472 20.2487 18.0781C19.3893 16.402 18.9597 14.4134 18.9597 12.1122C18.9597 10.3437 19.2153 8.76705 19.7267 7.3821C20.2452 5.99006 20.9696 4.81108 21.9 3.84517C22.8304 2.87926 23.9135 2.14418 25.1493 1.63991C26.3851 1.13565 27.7239 0.883522 29.1656 0.883522C30.4014 0.883522 31.552 1.06463 32.6173 1.42685C33.6827 1.78196 34.6273 2.28622 35.4511 2.93963C36.2821 3.59304 36.9604 4.37074 37.4859 5.27273C38.0115 6.16761 38.3489 7.15483 38.498 8.23438H33.8105ZM41.5654 1.18182H47.2544L53.2629 15.8409H53.5186L59.5271 1.18182H65.216V23H60.7416V8.79901H60.5605L54.9142 22.8935H51.8673L46.221 8.74574H46.0399V23H41.5654V1.18182ZM84.1776 0.159089L77.1463 26.2812H73.2365L80.2678 0.159089H84.1776ZM101.648 16.1499L86.6484 22.755V18.4403L96.9183 14.3175L96.7798 14.5412V14.0085L96.9183 14.2322L86.6484 10.1094V5.79474L101.648 12.3999V16.1499Z" fill="#F9FAFB"/>
</svg>
